<svg version="1.1" viewBox="0.0 0.0 960.0 540.0" fill="none" stroke="none" stroke-linecap="square" stroke-miterlimit="10" xmlns:xlink="http://www.w3.org/1999/xlink" xmlns="http://www.w3.org/2000/svg"><clipPath id="p.0"><path d="m0 0l960.0 0l0 540.0l-960.0 0l0 -540.0z" clip-rule="nonzero"/></clipPath><g clip-path="url(#p.0)"><path fill="#ffffff" d="m0 0l960.0 0l0 540.0l-960.0 0z" fill-rule="evenodd"/><path fill="#000000" fill-opacity="0.0" d="m0 0l960.0 0l0 535.5591l-960.0 0z" fill-rule="evenodd"/><path fill="#df4b2b" d="m323.71094 76.73889l29.6875 -57.109375l17.03125 0l-39.21875 71.328125l0 42.421875l-15.0 0l0 -42.421875l-39.21875 -71.328125l17.1875 0l29.53125 57.109375zm148.90625 3.4375q0 16.71875 -5.625 29.1875q-5.625 12.453125 -15.9375 19.015625q-10.3125 6.5625 -24.0625 6.5625q-13.4375 0 -23.828125 -6.59375q-10.390625 -6.609375 -16.140625 -18.828125q-5.734375 -12.234375 -5.890625 -28.328125l0 -8.203125q0 -16.40625 5.703125 -28.984375q5.703125 -12.578125 16.125 -19.25q10.4375 -6.6875 23.875 -6.6875q13.671875 0 24.09375 6.609375q10.4375 6.59375 16.0625 19.140625q5.625 12.53125 5.625 29.171875l0 7.1875zm-14.921875 -7.34375q0 -20.234375 -8.125 -31.046875q-8.125 -10.828125 -22.734375 -10.828125q-14.21875 0 -22.390625 10.828125q-8.15625 10.8125 -8.390625 30.03125l0 8.359375q0 19.609375 8.234375 30.828125q8.25 11.203125 22.703125 11.203125q14.53125 0 22.5 -10.578125q7.96875 -10.59375 8.203125 -30.359375l0 -8.4375zm117.5 -53.203125l0 77.34375q-0.078125 16.09375 -10.125 26.328125q-10.03125 10.234375 -27.21875 11.484375l-3.984375 0.15625q-18.671875 0 -29.765625 -10.078125q-11.09375 -10.078125 -11.25 -27.734375l0 -77.5l14.84375 0l0 77.03125q0 12.34375 6.796875 19.1875q6.796875 6.828125 19.375 6.828125q12.734375 0 19.484375 -6.796875q6.765625 -6.796875 6.765625 -19.140625l0 -77.109375l15.078125 0zm65.390625 67.734375l-26.71875 0l0 46.015625l-15.078125 0l0 -113.75l37.65625 0q19.21875 0 29.5625 8.75q10.359375 8.75 10.359375 25.46875q0 10.625 -5.75 18.515625q-5.734375 7.890625 -15.96875 11.796875l26.71875 48.28125l0 0.9375l-16.09375 0l-24.6875 -46.015625zm-26.71875 -12.265625l23.046875 0q11.171875 0 17.765625 -5.78125q6.609375 -5.78125 6.609375 -15.46875q0 -10.546875 -6.296875 -16.171875q-6.28125 -5.625 -18.15625 -5.703125l-22.96875 0l0 43.125z" fill-rule="nonzero"/><path fill="#df4b2b" d="m192.22656 289.28577q-2.109375 18.046875 -13.328125 27.859375q-11.203125 9.796875 -29.796875 9.796875q-20.15625 0 -32.3125 -14.453125q-12.140625 -14.453125 -12.140625 -38.671875l0 -10.9375q0 -15.859375 5.65625 -27.890625q5.671875 -12.03125 16.0625 -18.46875q10.390625 -6.453125 24.0625 -6.453125q18.125 0 29.0625 10.125q10.9375 10.109375 12.734375 28.0l-15.078125 0q-1.953125 -13.59375 -8.484375 -19.6875q-6.515625 -6.09375 -18.234375 -6.09375q-14.375 0 -22.546875 10.625q-8.15625 10.625 -8.15625 30.234375l0 11.015625q0 18.515625 7.734375 29.453125q7.734375 10.9375 21.640625 10.9375q12.5 0 19.171875 -5.65625q6.6875 -5.671875 8.875 -19.734375l15.078125 0zm107.96875 -17.109375q0 16.71875 -5.625 29.1875q-5.625 12.453125 -15.9375 19.015625q-10.3125 6.5625 -24.0625 6.5625q-13.4375 0 -23.828125 -6.59375q-10.390625 -6.609375 -16.140625 -18.828125q-5.734375 -12.234375 -5.890625 -28.328125l0 -8.203125q0 -16.40625 5.703125 -28.984375q5.703125 -12.578125 16.125 -19.25q10.4375 -6.6875 23.875 -6.6875q13.671875 0 24.09375 6.609375q10.4375 6.59375 16.0625 19.140625q5.625 12.53125 5.625 29.171875l0 7.1875zm-14.921875 -7.34375q0 -20.234375 -8.125 -31.046875q-8.125 -10.828125 -22.734375 -10.828125q-14.21875 0 -22.390625 10.828125q-8.15625 10.8125 -8.390625 30.03125l0 8.359375q0 19.609375 8.234375 30.828125q8.25 11.203125 22.703125 11.203125q14.53125 0 22.5 -10.578125q7.96875 -10.59375 8.203125 -30.359375l0 -8.4375zm56.796875 -53.203125l37.1875 92.8125l37.1875 -92.8125l19.453125 0l0 113.75l-15.0 0l0 -44.296875l1.40625 -47.8125l-37.34375 92.109375l-11.484375 0l-37.265625 -91.875l1.484375 47.578125l0 44.296875l-15.0 0l0 -113.75l19.375 0zm135.3125 69.21875l0 44.53125l-15.0 0l0 -113.75l41.953125 0q18.671875 0 29.25 9.53125q10.59375 9.53125 10.59375 25.234375q0 16.5625 -10.359375 25.515625q-10.34375 8.9375 -29.640625 8.9375l-26.796875 0zm0 -12.265625l26.953125 0q12.03125 0 18.4375 -5.65625q6.40625 -5.671875 6.40625 -16.375q0 -10.15625 -6.40625 -16.25q-6.40625 -6.09375 -17.578125 -6.328125l-27.8125 0l0 44.609375zm148.75 27.109375l-47.65625 0l-10.703125 29.6875l-15.46875 0l43.4375 -113.75l13.125 0l43.515625 113.75l-15.390625 0l-10.859375 -29.6875zm-43.125 -12.34375l38.671875 0l-19.375 -53.203125l-19.296875 53.203125zm172.10938 42.03125l-15.078125 0l-57.265625 -87.65625l0 87.65625l-15.078125 0l0 -113.75l15.078125 0l57.421875 88.046875l0 -88.046875l14.921875 0l0 113.75zm61.328125 -56.640625l29.6875 -57.109375l17.03125 0l-39.21875 71.328125l0 42.421875l-15.0 0l0 -42.421875l-39.21875 -71.328125l17.1875 0l29.53125 57.109375z" fill-rule="nonzero"/><path fill="#df4b2b" d="m345.625 517.3795l-15.078125 0l0 -52.578125l-57.34375 0l0 52.578125l-15.0 0l0 -113.75l15.0 0l0 48.90625l57.34375 0l0 -48.90625l15.078125 0l0 113.75zm90.9375 -52.578125l-49.296875 0l0 40.3125l57.265625 0l0 12.265625l-72.265625 0l0 -113.75l71.484375 0l0 12.34375l-56.484375 0l0 36.5625l49.296875 0l0 12.265625zm68.359375 6.5625l-26.71875 0l0 46.015625l-15.078125 0l0 -113.75l37.65625 0q19.21875 0 29.5625 8.75q10.359375 8.75 10.359375 25.46875q0 10.625 -5.75 18.515625q-5.734375 7.890625 -15.96875 11.796875l26.71875 48.28125l0 0.9375l-16.09375 0l-24.6875 -46.015625zm-26.71875 -12.265625l23.046875 0q11.171875 0 17.765625 -5.78125q6.609375 -5.78125 6.609375 -15.46875q0 -10.546875 -6.296875 -16.171875q-6.28125 -5.625 -18.15625 -5.703125l-22.96875 0l0 43.125zm147.8125 5.703125l-49.296875 0l0 40.3125l57.265625 0l0 12.265625l-72.265625 0l0 -113.75l71.484375 0l0 12.34375l-56.484375 0l0 36.5625l49.296875 0l0 12.265625zm41.328125 20.546875q0.15625 -9.296875 2.109375 -14.6875q1.953125 -5.390625 7.96875 -11.953125l10.234375 -10.546875q6.5625 -7.421875 6.5625 -15.9375q0 -8.203125 -4.296875 -12.84375q-4.296875 -4.65625 -12.5 -4.65625q-7.96875 0 -12.8125 4.21875q-4.84375 4.21875 -4.84375 11.328125l-14.453125 0q0.15625 -12.65625 9.015625 -20.421875q8.875 -7.78125 23.09375 -7.78125q14.765625 0 23.0 7.9375q8.25 7.921875 8.25 21.75q0 13.671875 -12.65625 26.953125l-8.515625 8.4375q-5.703125 6.328125 -5.703125 18.203125l-14.453125 0zm-0.625 24.765625q0 -3.515625 2.140625 -5.890625q2.15625 -2.390625 6.375 -2.390625q4.21875 0 6.40625 2.390625q2.1875 2.375 2.1875 5.890625q0 3.515625 -2.1875 5.828125q-2.1875 2.296875 -6.40625 2.296875q-4.21875 0 -6.375 -2.296875q-2.140625 -2.3125 -2.140625 -5.828125z" fill-rule="nonzero"/></g></svg>