<svg width="92" height="30" xmlns="http://www.w3.org/2000/svg">
 <defs>
  <style>.cls-1,.cls-7{fill:#757575;stroke:#757575;stroke-miterlimit:10;}.cls-1{stroke-width:0.19146px;}.cls-2{fill:url(#linear-gradient);}.cls-3{fill:#bdbdbd;}.cls-4,.cls-5{fill:#fff;}.cls-4{opacity:0.6;}.cls-6{fill:#fee900;}.cls-7{stroke-width:0.19146px;}</style>
 </defs>
 <title>beam-logo_bw_name-bottom</title>
 <g class="currentLayer">
  <title>Layer 1</title>
  <g stroke="null" id="svg_5">
   <path stroke="null" id="svg_1" d="m16.289811,18.793034a15.813434,15.813434 0 0 1 -0.513718,4.165847a9.777162,9.777162 0 0 1 -1.503812,3.241155a7.025812,7.025812 0 0 1 -2.428523,2.110957a6.91624,6.91624 0 0 1 -3.269199,0.756583a7.990063,7.990063 0 0 1 -3.801567,-0.840637a7.235661,7.235661 0 0 1 -2.587315,-2.297755l-0.093408,2.764778l-2.092268,0l0,-28.693963l2.223036,0l0,11.414076a7.197594,7.197594 0 0 1 2.559291,-2.437858a7.576239,7.576239 0 0 1 3.754873,-0.868662a7.177986,7.177986 0 0 1 3.28785,0.728559a6.880506,6.880506 0 0 1 2.437858,2.073617a9.593884,9.593884 0 0 1 1.513128,3.241155a16.246158,16.246158 0 0 1 0.513718,4.24992l0,0.392304l0.000057,-0.000077zm-2.241764,-0.392227a15.329443,15.329443 0 0 0 -0.336255,-3.28785a8.093457,8.093457 0 0 0 -1.055479,-2.652699a5.079176,5.079176 0 0 0 -4.530126,-2.409853a6.687912,6.687912 0 0 0 -2.241706,0.34559a5.666694,5.666694 0 0 0 -1.681294,0.924711a5.785755,5.785755 0 0 0 -1.195582,1.32635a7.905091,7.905091 0 0 0 -0.784608,1.550526l0,9.116321a7.428178,7.428178 0 0 0 0.887351,1.503812a5.681749,5.681749 0 0 0 1.260966,1.214271a5.817663,5.817663 0 0 0 1.671902,0.803278a7.172209,7.172209 0 0 0 2.120293,0.28956a5.194392,5.194392 0 0 0 2.624675,-0.635093a5.320779,5.320779 0 0 0 1.840067,-1.756071a8.090913,8.090913 0 0 0 1.074149,-2.643364a14.85255,14.85255 0 0 0 0.34559,-3.297185l0,-0.392304l0.000057,0z" class="cls-1"/>
   <path stroke="null" id="svg_2" d="m28.475391,29.067558a8.860887,8.860887 0 0 1 -3.642794,-0.737894a8.519907,8.519907 0 0 1 -2.867483,-2.054909a9.43974,9.43974 0 0 1 -1.877446,-3.129058a11.344407,11.344407 0 0 1 -0.67251,-3.979049l0,-0.803278a12.140377,12.140377 0 0 1 0.700534,-4.231231a9.983873,9.983873 0 0 1 1.896116,-3.231801a8.519869,8.519869 0 0 1 2.755443,-2.064244a7.697328,7.697328 0 0 1 3.297185,-0.728559a8.078747,8.078747 0 0 1 3.418618,0.691199a7.054277,7.054277 0 0 1 2.512596,1.924141a8.449875,8.449875 0 0 1 1.541172,2.932906a12.604607,12.604607 0 0 1 0.523072,3.717513l0,1.363709l-14.4217,0l0,0.429663a9.546692,9.546692 0 0 0 0.504382,3.129058a7.85327,7.85327 0 0 0 1.419758,2.549937a6.695621,6.695621 0 0 0 2.185677,1.709299a6.279004,6.279004 0 0 0 2.820827,0.625815a7.265962,7.265962 0 0 0 3.166417,-0.65384a7.003469,7.003469 0 0 0 2.493907,-2.092268l1.401069,1.064814a9.662768,9.662768 0 0 1 -1.167557,1.382399a6.943709,6.943709 0 0 1 -1.541172,1.139533a8.244005,8.244005 0 0 1 -1.980189,0.765918a10.021213,10.021213 0 0 1 -2.465921,0.280225zm-0.410974,-19.054589a5.695426,5.695426 0 0 0 -2.353804,0.485712a5.877671,5.877671 0 0 0 -1.914844,1.382399a7.339265,7.339265 0 0 0 -1.363709,2.157652a10.379907,10.379907 0 0 0 -0.719262,2.792879l12.123945,0l0,-0.242942a9.032056,9.032056 0 0 0 -0.410974,-2.456548a6.577938,6.577938 0 0 0 -1.092838,-2.101603a5.405943,5.405943 0 0 0 -1.784038,-1.466453a5.349702,5.349702 0 0 0 -2.484476,-0.551077l0,-0.000019z" class="cls-1"/>
   <path stroke="null" id="svg_3" d="m52.597201,28.693944a6.401202,6.401202 0 0 1 -0.28956,-1.279655q-0.102284,-0.756583 -0.140103,-1.541172a7.979906,7.979906 0 0 1 -2.746108,2.241725a9.268303,9.268303 0 0 1 -1.886781,0.691199a8.934401,8.934401 0 0 1 -2.223036,0.261536a7.908209,7.908209 0 0 1 -2.680724,-0.429663a5.978368,5.978368 0 0 1 -2.054909,-1.204917a5.410744,5.410744 0 0 1 -1.317015,-1.821397a5.84915,5.84915 0 0 1 0.168127,-4.9411a5.768309,5.768309 0 0 1 1.830675,-2.017549a8.977691,8.977691 0 0 1 2.904881,-1.270301a15.511268,15.511268 0 0 1 3.838946,-0.438998l4.147234,0l0,-2.297755a4.43161,4.43161 0 0 0 -1.335685,-3.409283a5.522976,5.522976 0 0 0 -3.894976,-1.242276a7.083009,7.083009 0 0 0 -2.166987,0.317547a5.489614,5.489614 0 0 0 -1.709299,0.878035a4.185665,4.185665 0 0 0 -1.120863,1.298325a3.251676,3.251676 0 0 0 -0.401715,1.578551l-2.241706,-0.018689a4.679029,4.679029 0 0 1 0.560489,-2.204347a6.135573,6.135573 0 0 1 1.578531,-1.896116a8.113161,8.113161 0 0 1 2.447232,-1.335685a9.461184,9.461184 0 0 1 3.166417,-0.504382a10.201335,10.201335 0 0 1 2.96093,0.410974a6.463793,6.463793 0 0 1 2.32578,1.232941a5.611736,5.611736 0 0 1 1.513128,2.054909a7.098886,7.098886 0 0 1 0.541742,2.876876l0,9.788831q0,0.524009 0.03736,1.083503c0.025212,0.373615 0.065384,0.736038 0.121433,1.083503q0.084073,0.524009 0.196152,0.99943a5.185535,5.185535 0 0 0 0.261536,0.831302l0,0.224176l-2.391164,0l0.000038,-0.000077zm-7.024072,-1.606479a7.867272,7.867272 0 0 0 2.251061,-0.308231a7.224853,7.224853 0 0 0 1.877446,-0.849992a6.610783,6.610783 0 0 0 1.457118,-1.260966a6.338037,6.338037 0 0 0 0.990095,-1.559861l0,-4.446072l-3.829688,0a13.905343,13.905343 0 0 0 -3.073028,0.308231a7.502304,7.502304 0 0 0 -2.28842,0.887351a4.199247,4.199247 0 0 0 -1.429093,1.410404a3.604669,3.604669 0 0 0 -0.495047,1.877446a3.759005,3.759005 0 0 0 0.317547,1.541172a3.668045,3.668045 0 0 0 0.906021,1.251631a4.316777,4.316777 0 0 0 1.429093,0.840637a5.449749,5.449749 0 0 0 1.886915,0.308154l-0.000019,0.000096z" class="cls-1"/>
   <path stroke="null" id="svg_4" d="m61.793826,8.481132l0.074719,3.28785a8.68681,8.68681 0 0 1 1.167557,-1.503812a6.866217,6.866217 0 0 1 1.485142,-1.158222a7.448953,7.448953 0 0 1 1.793373,-0.737894a8.04858,8.04858 0 0 1 2.092268,-0.261536a7.392139,7.392139 0 0 1 3.810922,0.934046a5.166654,5.166654 0 0 1 2.260396,2.988954a8.308892,8.308892 0 0 1 1.167557,-1.559861a7.414061,7.414061 0 0 1 1.550526,-1.242276a7.96642,7.96642 0 0 1 1.914844,-0.821967a8.245918,8.245918 0 0 1 2.260396,-0.298895a8.661617,8.661617 0 0 1 2.802138,0.420328a5.038813,5.038813 0 0 1 2.082933,1.32635a5.979152,5.979152 0 0 1 1.298325,2.30709a11.103894,11.103894 0 0 1 0.448353,3.362569l0,13.170089l-2.241706,0l0,-13.188759a8.487158,8.487158 0 0 0 -0.354944,-2.662035a4.084337,4.084337 0 0 0 -1.008765,-1.681294a3.554685,3.554685 0 0 0 -1.559861,-0.868662a7.73002,7.73002 0 0 0 -1.989448,-0.242942a5.911243,5.911243 0 0 0 -4.28728,1.765348a5.878647,5.878647 0 0 0 -1.63458,3.502672l0,13.375576l-2.241859,0l0,-13.356791a7.690996,7.690996 0 0 0 -0.354944,-2.521932a4.012793,4.012793 0 0 0 -1.008765,-1.625245a3.767039,3.767039 0 0 0 -1.559861,-0.878035a7.251156,7.251156 0 0 0 -2.008195,-0.261536a5.839738,5.839738 0 0 0 -2.241706,0.401715a5.580612,5.580612 0 0 0 -1.690629,1.074149a6.04247,6.04247 0 0 0 -1.186247,1.531837a9.659574,9.659574 0 0 0 -0.747229,1.774683l0,13.861269l-2.241725,0l0,-20.212831l2.148221,0l0.000077,0z" class="cls-1"/>
  </g>
 </g>
 <g>
  <title>Layer 2</title>
  <rect fill="none" y="0" x="0" height="100%" width="100%" id="backgroundrect"/>
 </g>
 <g>
  <title>background</title>
  <rect fill="none" id="canvas_background" height="32" width="94" y="-1" x="-1"/>
 </g>
</svg>