<?xml version="1.0" encoding="UTF-8"?>
<svg id="Layer_1" xmlns="http://www.w3.org/2000/svg" xmlns:svg="http://www.w3.org/2000/svg" version="1.1" viewBox="0 0 82.2 82.2">
  <!-- Generator: Adobe Illustrator 30.5.1, SVG Export Plug-In . SVG Version: 2.1.4 Build 3)  -->
  <defs>
    <style>
      .st0 {
        fill: #505050;
      }
    </style>
  </defs>
  <rect class="st0" width="2.8" height="2.8"/>
  <rect class="st0" x="2.8" width="2.8" height="2.8"/>
  <rect class="st0" x="5.7" width="2.8" height="2.8"/>
  <rect class="st0" x="8.5" width="2.8" height="2.8"/>
  <rect class="st0" x="11.3" width="2.8" height="2.8"/>
  <rect class="st0" x="14.2" width="2.8" height="2.8"/>
  <rect class="st0" x="17" width="2.8" height="2.8"/>
  <rect class="st0" x="25.5" width="2.8" height="2.8"/>
  <rect class="st0" x="34" width="2.8" height="2.8"/>
  <rect class="st0" x="36.9" width="2.8" height="2.8"/>
  <rect class="st0" x="45.4" width="2.8" height="2.8"/>
  <rect class="st0" x="48.2" width="2.8" height="2.8"/>
  <rect class="st0" x="51" width="2.8" height="2.8"/>
  <rect class="st0" x="53.9" width="2.8" height="2.8"/>
  <rect class="st0" x="56.7" width="2.8" height="2.8"/>
  <rect class="st0" x="62.4" width="2.8" height="2.8"/>
  <rect class="st0" x="65.2" width="2.8" height="2.8"/>
  <rect class="st0" x="68" width="2.8" height="2.8"/>
  <rect class="st0" x="70.9" width="2.8" height="2.8"/>
  <rect class="st0" x="73.7" width="2.8" height="2.8"/>
  <rect class="st0" x="76.5" width="2.8" height="2.8"/>
  <rect class="st0" x="79.4" width="2.8" height="2.8"/>
  <rect class="st0" y="2.8" width="2.8" height="2.8"/>
  <rect class="st0" x="17" y="2.8" width="2.8" height="2.8"/>
  <rect class="st0" x="22.7" y="2.8" width="2.8" height="2.8"/>
  <rect class="st0" x="39.7" y="2.8" width="2.8" height="2.8"/>
  <rect class="st0" x="42.5" y="2.8" width="2.8" height="2.8"/>
  <rect class="st0" x="45.4" y="2.8" width="2.8" height="2.8"/>
  <rect class="st0" x="51" y="2.8" width="2.8" height="2.8"/>
  <rect class="st0" x="53.9" y="2.8" width="2.8" height="2.8"/>
  <rect class="st0" x="56.7" y="2.8" width="2.8" height="2.8"/>
  <rect class="st0" x="62.4" y="2.8" width="2.8" height="2.8"/>
  <rect class="st0" x="79.4" y="2.8" width="2.8" height="2.8"/>
  <rect class="st0" y="5.7" width="2.8" height="2.8"/>
  <rect class="st0" x="5.7" y="5.7" width="2.8" height="2.8"/>
  <rect class="st0" x="8.5" y="5.7" width="2.8" height="2.8"/>
  <rect class="st0" x="11.3" y="5.7" width="2.8" height="2.8"/>
  <rect class="st0" x="17" y="5.7" width="2.8" height="2.8"/>
  <rect class="st0" x="36.9" y="5.7" width="2.8" height="2.8"/>
  <rect class="st0" x="39.7" y="5.7" width="2.8" height="2.8"/>
  <rect class="st0" x="45.4" y="5.7" width="2.8" height="2.8"/>
  <rect class="st0" x="53.9" y="5.7" width="2.8" height="2.8"/>
  <rect class="st0" x="62.4" y="5.7" width="2.8" height="2.8"/>
  <rect class="st0" x="68" y="5.7" width="2.8" height="2.8"/>
  <rect class="st0" x="70.9" y="5.7" width="2.8" height="2.8"/>
  <rect class="st0" x="73.7" y="5.7" width="2.8" height="2.8"/>
  <rect class="st0" x="79.4" y="5.7" width="2.8" height="2.8"/>
  <rect class="st0" y="8.5" width="2.8" height="2.8"/>
  <rect class="st0" x="5.7" y="8.5" width="2.8" height="2.8"/>
  <rect class="st0" x="8.5" y="8.5" width="2.8" height="2.8"/>
  <rect class="st0" x="11.3" y="8.5" width="2.8" height="2.8"/>
  <rect class="st0" x="17" y="8.5" width="2.8" height="2.8"/>
  <rect class="st0" x="25.5" y="8.5" width="2.8" height="2.8"/>
  <rect class="st0" x="28.3" y="8.5" width="2.8" height="2.8"/>
  <rect class="st0" x="34" y="8.5" width="2.8" height="2.8"/>
  <rect class="st0" x="36.9" y="8.5" width="2.8" height="2.8"/>
  <rect class="st0" x="39.7" y="8.5" width="2.8" height="2.8"/>
  <rect class="st0" x="42.5" y="8.5" width="2.8" height="2.8"/>
  <rect class="st0" x="51" y="8.5" width="2.8" height="2.8"/>
  <rect class="st0" x="53.9" y="8.5" width="2.8" height="2.8"/>
  <rect class="st0" x="62.4" y="8.5" width="2.8" height="2.8"/>
  <rect class="st0" x="68" y="8.5" width="2.8" height="2.8"/>
  <rect class="st0" x="70.9" y="8.5" width="2.8" height="2.8"/>
  <rect class="st0" x="73.7" y="8.5" width="2.8" height="2.8"/>
  <rect class="st0" x="79.4" y="8.5" width="2.8" height="2.8"/>
  <rect class="st0" y="11.3" width="2.8" height="2.8"/>
  <rect class="st0" x="5.7" y="11.3" width="2.8" height="2.8"/>
  <rect class="st0" x="8.5" y="11.3" width="2.8" height="2.8"/>
  <rect class="st0" x="11.3" y="11.3" width="2.8" height="2.8"/>
  <rect class="st0" x="17" y="11.3" width="2.8" height="2.8"/>
  <rect class="st0" x="22.7" y="11.3" width="2.8" height="2.8"/>
  <rect class="st0" x="28.3" y="11.3" width="2.8" height="2.8"/>
  <rect class="st0" x="39.7" y="11.3" width="2.8" height="2.8"/>
  <rect class="st0" x="53.9" y="11.3" width="2.8" height="2.8"/>
  <rect class="st0" x="62.4" y="11.3" width="2.8" height="2.8"/>
  <rect class="st0" x="68" y="11.3" width="2.8" height="2.8"/>
  <rect class="st0" x="70.9" y="11.3" width="2.8" height="2.8"/>
  <rect class="st0" x="73.7" y="11.3" width="2.8" height="2.8"/>
  <rect class="st0" x="79.4" y="11.3" width="2.8" height="2.8"/>
  <rect class="st0" y="14.2" width="2.8" height="2.8"/>
  <rect class="st0" x="17" y="14.2" width="2.8" height="2.8"/>
  <rect class="st0" x="25.5" y="14.2" width="2.8" height="2.8"/>
  <rect class="st0" x="28.3" y="14.2" width="2.8" height="2.8"/>
  <rect class="st0" x="36.9" y="14.2" width="2.8" height="2.8"/>
  <rect class="st0" x="48.2" y="14.2" width="2.8" height="2.8"/>
  <rect class="st0" x="53.9" y="14.2" width="2.8" height="2.8"/>
  <rect class="st0" x="62.4" y="14.2" width="2.8" height="2.8"/>
  <rect class="st0" x="79.4" y="14.2" width="2.8" height="2.8"/>
  <rect class="st0" y="17" width="2.8" height="2.8"/>
  <rect class="st0" x="2.8" y="17" width="2.8" height="2.8"/>
  <rect class="st0" x="5.7" y="17" width="2.8" height="2.8"/>
  <rect class="st0" x="8.5" y="17" width="2.8" height="2.8"/>
  <rect class="st0" x="11.3" y="17" width="2.8" height="2.8"/>
  <rect class="st0" x="14.2" y="17" width="2.8" height="2.8"/>
  <rect class="st0" x="17" y="17" width="2.8" height="2.8"/>
  <rect class="st0" x="22.7" y="17" width="2.8" height="2.8"/>
  <rect class="st0" x="28.3" y="17" width="2.8" height="2.8"/>
  <rect class="st0" x="34" y="17" width="2.8" height="2.8"/>
  <rect class="st0" x="39.7" y="17" width="2.8" height="2.8"/>
  <rect class="st0" x="45.4" y="17" width="2.8" height="2.8"/>
  <rect class="st0" x="51" y="17" width="2.8" height="2.8"/>
  <rect class="st0" x="56.7" y="17" width="2.8" height="2.8"/>
  <rect class="st0" x="62.4" y="17" width="2.8" height="2.8"/>
  <rect class="st0" x="65.2" y="17" width="2.8" height="2.8"/>
  <rect class="st0" x="68" y="17" width="2.8" height="2.8"/>
  <rect class="st0" x="70.9" y="17" width="2.8" height="2.8"/>
  <rect class="st0" x="73.7" y="17" width="2.8" height="2.8"/>
  <rect class="st0" x="76.5" y="17" width="2.8" height="2.8"/>
  <rect class="st0" x="79.4" y="17" width="2.8" height="2.8"/>
  <rect class="st0" x="34" y="19.8" width="2.8" height="2.8"/>
  <rect class="st0" x="36.9" y="19.8" width="2.8" height="2.8"/>
  <rect class="st0" x="39.7" y="19.8" width="2.8" height="2.8"/>
  <rect class="st0" x="45.4" y="19.8" width="2.8" height="2.8"/>
  <rect class="st0" x="48.2" y="19.8" width="2.8" height="2.8"/>
  <rect class="st0" y="22.7" width="2.8" height="2.8"/>
  <rect class="st0" x="5.7" y="22.7" width="2.8" height="2.8"/>
  <rect class="st0" x="11.3" y="22.7" width="2.8" height="2.8"/>
  <rect class="st0" x="17" y="22.7" width="2.8" height="2.8"/>
  <rect class="st0" x="28.3" y="22.7" width="2.8" height="2.8"/>
  <rect class="st0" x="39.7" y="22.7" width="2.8" height="2.8"/>
  <rect class="st0" x="42.5" y="22.7" width="2.8" height="2.8"/>
  <rect class="st0" x="48.2" y="22.7" width="2.8" height="2.8"/>
  <rect class="st0" x="68" y="22.7" width="2.8" height="2.8"/>
  <rect class="st0" x="76.5" y="22.7" width="2.8" height="2.8"/>
  <rect class="st0" y="25.5" width="2.8" height="2.8"/>
  <rect class="st0" x="2.8" y="25.5" width="2.8" height="2.8"/>
  <rect class="st0" x="5.7" y="25.5" width="2.8" height="2.8"/>
  <rect class="st0" x="14.2" y="25.5" width="2.8" height="2.8"/>
  <rect class="st0" x="22.7" y="25.5" width="2.8" height="2.8"/>
  <rect class="st0" x="25.5" y="25.5" width="2.8" height="2.8"/>
  <rect class="st0" x="28.3" y="25.5" width="2.8" height="2.8"/>
  <rect class="st0" x="31.2" y="25.5" width="2.8" height="2.8"/>
  <rect class="st0" x="39.7" y="25.5" width="2.8" height="2.8"/>
  <rect class="st0" x="42.5" y="25.5" width="2.8" height="2.8"/>
  <rect class="st0" x="48.2" y="25.5" width="2.8" height="2.8"/>
  <rect class="st0" x="51" y="25.5" width="2.8" height="2.8"/>
  <rect class="st0" x="56.7" y="25.5" width="2.8" height="2.8"/>
  <rect class="st0" x="62.4" y="25.5" width="2.8" height="2.8"/>
  <rect class="st0" x="70.9" y="25.5" width="2.8" height="2.8"/>
  <rect class="st0" x="79.4" y="25.5" width="2.8" height="2.8"/>
  <rect class="st0" x="8.5" y="28.3" width="2.8" height="2.8"/>
  <rect class="st0" x="14.2" y="28.3" width="2.8" height="2.8"/>
  <rect class="st0" x="17" y="28.3" width="2.8" height="2.8"/>
  <rect class="st0" x="22.7" y="28.3" width="2.8" height="2.8"/>
  <rect class="st0" x="25.5" y="28.3" width="2.8" height="2.8"/>
  <rect class="st0" x="31.2" y="28.3" width="2.8" height="2.8"/>
  <rect class="st0" x="36.9" y="28.3" width="2.8" height="2.8"/>
  <rect class="st0" x="48.2" y="28.3" width="2.8" height="2.8"/>
  <rect class="st0" x="51" y="28.3" width="2.8" height="2.8"/>
  <rect class="st0" x="62.4" y="28.3" width="2.8" height="2.8"/>
  <rect class="st0" x="65.2" y="28.3" width="2.8" height="2.8"/>
  <rect class="st0" x="68" y="28.3" width="2.8" height="2.8"/>
  <rect class="st0" x="73.7" y="28.3" width="2.8" height="2.8"/>
  <rect class="st0" x="76.5" y="28.3" width="2.8" height="2.8"/>
  <rect class="st0" x="79.4" y="28.3" width="2.8" height="2.8"/>
  <rect class="st0" x="5.7" y="31.2" width="2.8" height="2.8"/>
  <rect class="st0" x="8.5" y="31.2" width="2.8" height="2.8"/>
  <rect class="st0" x="22.7" y="31.2" width="2.8" height="2.8"/>
  <rect class="st0" x="31.2" y="31.2" width="2.8" height="2.8"/>
  <rect class="st0" x="34" y="31.2" width="2.8" height="2.8"/>
  <rect class="st0" x="42.5" y="31.2" width="2.8" height="2.8"/>
  <rect class="st0" x="48.2" y="31.2" width="2.8" height="2.8"/>
  <rect class="st0" x="56.7" y="31.2" width="2.8" height="2.8"/>
  <rect class="st0" x="62.4" y="31.2" width="2.8" height="2.8"/>
  <rect class="st0" x="68" y="31.2" width="2.8" height="2.8"/>
  <rect class="st0" x="76.5" y="31.2" width="2.8" height="2.8"/>
  <rect class="st0" y="34" width="2.8" height="2.8"/>
  <rect class="st0" x="8.5" y="34" width="2.8" height="2.8"/>
  <rect class="st0" x="14.2" y="34" width="2.8" height="2.8"/>
  <rect class="st0" x="17" y="34" width="2.8" height="2.8"/>
  <rect class="st0" x="22.7" y="34" width="2.8" height="2.8"/>
  <rect class="st0" x="28.3" y="34" width="2.8" height="2.8"/>
  <rect class="st0" x="45.4" y="34" width="2.8" height="2.8"/>
  <rect class="st0" x="48.2" y="34" width="2.8" height="2.8"/>
  <rect class="st0" x="53.9" y="34" width="2.8" height="2.8"/>
  <rect class="st0" x="56.7" y="34" width="2.8" height="2.8"/>
  <rect class="st0" x="59.5" y="34" width="2.8" height="2.8"/>
  <rect class="st0" x="62.4" y="34" width="2.8" height="2.8"/>
  <rect class="st0" x="70.9" y="34" width="2.8" height="2.8"/>
  <rect class="st0" x="76.5" y="34" width="2.8" height="2.8"/>
  <rect class="st0" x="79.4" y="34" width="2.8" height="2.8"/>
  <rect class="st0" y="36.9" width="2.8" height="2.8"/>
  <rect class="st0" x="5.7" y="36.9" width="2.8" height="2.8"/>
  <rect class="st0" x="8.5" y="36.9" width="2.8" height="2.8"/>
  <rect class="st0" x="11.3" y="36.9" width="2.8" height="2.8"/>
  <rect class="st0" x="14.2" y="36.9" width="2.8" height="2.8"/>
  <rect class="st0" x="19.8" y="36.9" width="2.8" height="2.8"/>
  <rect class="st0" x="22.7" y="36.9" width="2.8" height="2.8"/>
  <rect class="st0" x="28.3" y="36.9" width="2.8" height="2.8"/>
  <rect class="st0" x="36.9" y="36.9" width="2.8" height="2.8"/>
  <rect class="st0" x="42.5" y="36.9" width="2.8" height="2.8"/>
  <rect class="st0" x="45.4" y="36.9" width="2.8" height="2.8"/>
  <rect class="st0" x="56.7" y="36.9" width="2.8" height="2.8"/>
  <rect class="st0" x="62.4" y="36.9" width="2.8" height="2.8"/>
  <rect class="st0" x="70.9" y="36.9" width="2.8" height="2.8"/>
  <rect class="st0" x="79.4" y="36.9" width="2.8" height="2.8"/>
  <rect class="st0" y="39.7" width="2.8" height="2.8"/>
  <rect class="st0" x="2.8" y="39.7" width="2.8" height="2.8"/>
  <rect class="st0" x="11.3" y="39.7" width="2.8" height="2.8"/>
  <rect class="st0" x="14.2" y="39.7" width="2.8" height="2.8"/>
  <rect class="st0" x="17" y="39.7" width="2.8" height="2.8"/>
  <rect class="st0" x="22.7" y="39.7" width="2.8" height="2.8"/>
  <rect class="st0" x="34" y="39.7" width="2.8" height="2.8"/>
  <rect class="st0" x="39.7" y="39.7" width="2.8" height="2.8"/>
  <rect class="st0" x="42.5" y="39.7" width="2.8" height="2.8"/>
  <rect class="st0" x="45.4" y="39.7" width="2.8" height="2.8"/>
  <rect class="st0" x="48.2" y="39.7" width="2.8" height="2.8"/>
  <rect class="st0" x="56.7" y="39.7" width="2.8" height="2.8"/>
  <rect class="st0" x="59.5" y="39.7" width="2.8" height="2.8"/>
  <rect class="st0" x="62.4" y="39.7" width="2.8" height="2.8"/>
  <rect class="st0" x="65.2" y="39.7" width="2.8" height="2.8"/>
  <rect class="st0" x="68" y="39.7" width="2.8" height="2.8"/>
  <rect class="st0" x="70.9" y="39.7" width="2.8" height="2.8"/>
  <rect class="st0" x="76.5" y="39.7" width="2.8" height="2.8"/>
  <rect class="st0" x="79.4" y="39.7" width="2.8" height="2.8"/>
  <rect class="st0" y="42.5" width="2.8" height="2.8"/>
  <rect class="st0" x="2.8" y="42.5" width="2.8" height="2.8"/>
  <rect class="st0" x="8.5" y="42.5" width="2.8" height="2.8"/>
  <rect class="st0" x="19.8" y="42.5" width="2.8" height="2.8"/>
  <rect class="st0" x="25.5" y="42.5" width="2.8" height="2.8"/>
  <rect class="st0" x="28.3" y="42.5" width="2.8" height="2.8"/>
  <rect class="st0" x="31.2" y="42.5" width="2.8" height="2.8"/>
  <rect class="st0" x="36.9" y="42.5" width="2.8" height="2.8"/>
  <rect class="st0" x="39.7" y="42.5" width="2.8" height="2.8"/>
  <rect class="st0" x="45.4" y="42.5" width="2.8" height="2.8"/>
  <rect class="st0" x="48.2" y="42.5" width="2.8" height="2.8"/>
  <rect class="st0" x="51" y="42.5" width="2.8" height="2.8"/>
  <rect class="st0" x="56.7" y="42.5" width="2.8" height="2.8"/>
  <rect class="st0" x="65.2" y="42.5" width="2.8" height="2.8"/>
  <rect class="st0" x="70.9" y="42.5" width="2.8" height="2.8"/>
  <rect class="st0" x="76.5" y="42.5" width="2.8" height="2.8"/>
  <rect class="st0" y="45.4" width="2.8" height="2.8"/>
  <rect class="st0" x="2.8" y="45.4" width="2.8" height="2.8"/>
  <rect class="st0" x="8.5" y="45.4" width="2.8" height="2.8"/>
  <rect class="st0" x="17" y="45.4" width="2.8" height="2.8"/>
  <rect class="st0" x="22.7" y="45.4" width="2.8" height="2.8"/>
  <rect class="st0" x="25.5" y="45.4" width="2.8" height="2.8"/>
  <rect class="st0" x="31.2" y="45.4" width="2.8" height="2.8"/>
  <rect class="st0" x="39.7" y="45.4" width="2.8" height="2.8"/>
  <rect class="st0" x="42.5" y="45.4" width="2.8" height="2.8"/>
  <rect class="st0" x="48.2" y="45.4" width="2.8" height="2.8"/>
  <rect class="st0" x="53.9" y="45.4" width="2.8" height="2.8"/>
  <rect class="st0" x="56.7" y="45.4" width="2.8" height="2.8"/>
  <rect class="st0" x="59.5" y="45.4" width="2.8" height="2.8"/>
  <rect class="st0" x="62.4" y="45.4" width="2.8" height="2.8"/>
  <rect class="st0" x="70.9" y="45.4" width="2.8" height="2.8"/>
  <rect class="st0" x="76.5" y="45.4" width="2.8" height="2.8"/>
  <rect class="st0" x="79.4" y="45.4" width="2.8" height="2.8"/>
  <rect class="st0" x="5.7" y="48.2" width="2.8" height="2.8"/>
  <rect class="st0" x="14.2" y="48.2" width="2.8" height="2.8"/>
  <rect class="st0" x="22.7" y="48.2" width="2.8" height="2.8"/>
  <rect class="st0" x="28.3" y="48.2" width="2.8" height="2.8"/>
  <rect class="st0" x="39.7" y="48.2" width="2.8" height="2.8"/>
  <rect class="st0" x="42.5" y="48.2" width="2.8" height="2.8"/>
  <rect class="st0" x="48.2" y="48.2" width="2.8" height="2.8"/>
  <rect class="st0" x="59.5" y="48.2" width="2.8" height="2.8"/>
  <rect class="st0" x="62.4" y="48.2" width="2.8" height="2.8"/>
  <rect class="st0" x="70.9" y="48.2" width="2.8" height="2.8"/>
  <rect class="st0" x="73.7" y="48.2" width="2.8" height="2.8"/>
  <rect class="st0" x="79.4" y="48.2" width="2.8" height="2.8"/>
  <rect class="st0" y="51" width="2.8" height="2.8"/>
  <rect class="st0" x="5.7" y="51" width="2.8" height="2.8"/>
  <rect class="st0" x="8.5" y="51" width="2.8" height="2.8"/>
  <rect class="st0" x="11.3" y="51" width="2.8" height="2.8"/>
  <rect class="st0" x="17" y="51" width="2.8" height="2.8"/>
  <rect class="st0" x="19.8" y="51" width="2.8" height="2.8"/>
  <rect class="st0" x="25.5" y="51" width="2.8" height="2.8"/>
  <rect class="st0" x="28.3" y="51" width="2.8" height="2.8"/>
  <rect class="st0" x="36.9" y="51" width="2.8" height="2.8"/>
  <rect class="st0" x="48.2" y="51" width="2.8" height="2.8"/>
  <rect class="st0" x="56.7" y="51" width="2.8" height="2.8"/>
  <rect class="st0" x="59.5" y="51" width="2.8" height="2.8"/>
  <rect class="st0" x="65.2" y="51" width="2.8" height="2.8"/>
  <rect class="st0" x="68" y="51" width="2.8" height="2.8"/>
  <rect class="st0" x="76.5" y="51" width="2.8" height="2.8"/>
  <rect class="st0" x="79.4" y="51" width="2.8" height="2.8"/>
  <rect class="st0" x="2.8" y="53.9" width="2.8" height="2.8"/>
  <rect class="st0" x="14.2" y="53.9" width="2.8" height="2.8"/>
  <rect class="st0" x="19.8" y="53.9" width="2.8" height="2.8"/>
  <rect class="st0" x="22.7" y="53.9" width="2.8" height="2.8"/>
  <rect class="st0" x="25.5" y="53.9" width="2.8" height="2.8"/>
  <rect class="st0" x="28.3" y="53.9" width="2.8" height="2.8"/>
  <rect class="st0" x="31.2" y="53.9" width="2.8" height="2.8"/>
  <rect class="st0" x="42.5" y="53.9" width="2.8" height="2.8"/>
  <rect class="st0" x="48.2" y="53.9" width="2.8" height="2.8"/>
  <rect class="st0" x="51" y="53.9" width="2.8" height="2.8"/>
  <rect class="st0" x="53.9" y="53.9" width="2.8" height="2.8"/>
  <rect class="st0" x="56.7" y="53.9" width="2.8" height="2.8"/>
  <rect class="st0" x="70.9" y="53.9" width="2.8" height="2.8"/>
  <rect class="st0" x="76.5" y="53.9" width="2.8" height="2.8"/>
  <rect class="st0" y="56.7" width="2.8" height="2.8"/>
  <rect class="st0" x="14.2" y="56.7" width="2.8" height="2.8"/>
  <rect class="st0" x="17" y="56.7" width="2.8" height="2.8"/>
  <rect class="st0" x="22.7" y="56.7" width="2.8" height="2.8"/>
  <rect class="st0" x="45.4" y="56.7" width="2.8" height="2.8"/>
  <rect class="st0" x="48.2" y="56.7" width="2.8" height="2.8"/>
  <rect class="st0" x="56.7" y="56.7" width="2.8" height="2.8"/>
  <rect class="st0" x="59.5" y="56.7" width="2.8" height="2.8"/>
  <rect class="st0" x="62.4" y="56.7" width="2.8" height="2.8"/>
  <rect class="st0" x="65.2" y="56.7" width="2.8" height="2.8"/>
  <rect class="st0" x="68" y="56.7" width="2.8" height="2.8"/>
  <rect class="st0" x="22.7" y="59.5" width="2.8" height="2.8"/>
  <rect class="st0" x="34" y="59.5" width="2.8" height="2.8"/>
  <rect class="st0" x="36.9" y="59.5" width="2.8" height="2.8"/>
  <rect class="st0" x="42.5" y="59.5" width="2.8" height="2.8"/>
  <rect class="st0" x="45.4" y="59.5" width="2.8" height="2.8"/>
  <rect class="st0" x="48.2" y="59.5" width="2.8" height="2.8"/>
  <rect class="st0" x="51" y="59.5" width="2.8" height="2.8"/>
  <rect class="st0" x="56.7" y="59.5" width="2.8" height="2.8"/>
  <rect class="st0" x="68" y="59.5" width="2.8" height="2.8"/>
  <rect class="st0" x="73.7" y="59.5" width="2.8" height="2.8"/>
  <rect class="st0" x="76.5" y="59.5" width="2.8" height="2.8"/>
  <rect class="st0" x="79.4" y="59.5" width="2.8" height="2.8"/>
  <rect class="st0" y="62.4" width="2.8" height="2.8"/>
  <rect class="st0" x="2.8" y="62.4" width="2.8" height="2.8"/>
  <rect class="st0" x="5.7" y="62.4" width="2.8" height="2.8"/>
  <rect class="st0" x="8.5" y="62.4" width="2.8" height="2.8"/>
  <rect class="st0" x="11.3" y="62.4" width="2.8" height="2.8"/>
  <rect class="st0" x="14.2" y="62.4" width="2.8" height="2.8"/>
  <rect class="st0" x="17" y="62.4" width="2.8" height="2.8"/>
  <rect class="st0" x="25.5" y="62.4" width="2.8" height="2.8"/>
  <rect class="st0" x="28.3" y="62.4" width="2.8" height="2.8"/>
  <rect class="st0" x="31.2" y="62.4" width="2.8" height="2.8"/>
  <rect class="st0" x="39.7" y="62.4" width="2.8" height="2.8"/>
  <rect class="st0" x="42.5" y="62.4" width="2.8" height="2.8"/>
  <rect class="st0" x="45.4" y="62.4" width="2.8" height="2.8"/>
  <rect class="st0" x="48.2" y="62.4" width="2.8" height="2.8"/>
  <rect class="st0" x="51" y="62.4" width="2.8" height="2.8"/>
  <rect class="st0" x="53.9" y="62.4" width="2.8" height="2.8"/>
  <rect class="st0" x="56.7" y="62.4" width="2.8" height="2.8"/>
  <rect class="st0" x="62.4" y="62.4" width="2.8" height="2.8"/>
  <rect class="st0" x="68" y="62.4" width="2.8" height="2.8"/>
  <rect class="st0" x="70.9" y="62.4" width="2.8" height="2.8"/>
  <rect class="st0" x="76.5" y="62.4" width="2.8" height="2.8"/>
  <rect class="st0" x="79.4" y="62.4" width="2.8" height="2.8"/>
  <rect class="st0" y="65.2" width="2.8" height="2.8"/>
  <rect class="st0" x="17" y="65.2" width="2.8" height="2.8"/>
  <rect class="st0" x="25.5" y="65.2" width="2.8" height="2.8"/>
  <rect class="st0" x="36.9" y="65.2" width="2.8" height="2.8"/>
  <rect class="st0" x="39.7" y="65.2" width="2.8" height="2.8"/>
  <rect class="st0" x="45.4" y="65.2" width="2.8" height="2.8"/>
  <rect class="st0" x="48.2" y="65.2" width="2.8" height="2.8"/>
  <rect class="st0" x="56.7" y="65.2" width="2.8" height="2.8"/>
  <rect class="st0" x="68" y="65.2" width="2.8" height="2.8"/>
  <rect class="st0" x="70.9" y="65.2" width="2.8" height="2.8"/>
  <rect class="st0" x="76.5" y="65.2" width="2.8" height="2.8"/>
  <rect class="st0" x="79.4" y="65.2" width="2.8" height="2.8"/>
  <rect class="st0" y="68" width="2.8" height="2.8"/>
  <rect class="st0" x="5.7" y="68" width="2.8" height="2.8"/>
  <rect class="st0" x="8.5" y="68" width="2.8" height="2.8"/>
  <rect class="st0" x="11.3" y="68" width="2.8" height="2.8"/>
  <rect class="st0" x="17" y="68" width="2.8" height="2.8"/>
  <rect class="st0" x="22.7" y="68" width="2.8" height="2.8"/>
  <rect class="st0" x="25.5" y="68" width="2.8" height="2.8"/>
  <rect class="st0" x="28.3" y="68" width="2.8" height="2.8"/>
  <rect class="st0" x="34" y="68" width="2.8" height="2.8"/>
  <rect class="st0" x="39.7" y="68" width="2.8" height="2.8"/>
  <rect class="st0" x="42.5" y="68" width="2.8" height="2.8"/>
  <rect class="st0" x="45.4" y="68" width="2.8" height="2.8"/>
  <rect class="st0" x="48.2" y="68" width="2.8" height="2.8"/>
  <rect class="st0" x="56.7" y="68" width="2.8" height="2.8"/>
  <rect class="st0" x="59.5" y="68" width="2.8" height="2.8"/>
  <rect class="st0" x="62.4" y="68" width="2.8" height="2.8"/>
  <rect class="st0" x="65.2" y="68" width="2.8" height="2.8"/>
  <rect class="st0" x="68" y="68" width="2.8" height="2.8"/>
  <rect class="st0" x="76.5" y="68" width="2.8" height="2.8"/>
  <rect class="st0" y="70.9" width="2.8" height="2.8"/>
  <rect class="st0" x="5.7" y="70.9" width="2.8" height="2.8"/>
  <rect class="st0" x="8.5" y="70.9" width="2.8" height="2.8"/>
  <rect class="st0" x="11.3" y="70.9" width="2.8" height="2.8"/>
  <rect class="st0" x="17" y="70.9" width="2.8" height="2.8"/>
  <rect class="st0" x="28.3" y="70.9" width="2.8" height="2.8"/>
  <rect class="st0" x="31.2" y="70.9" width="2.8" height="2.8"/>
  <rect class="st0" x="39.7" y="70.9" width="2.8" height="2.8"/>
  <rect class="st0" x="42.5" y="70.9" width="2.8" height="2.8"/>
  <rect class="st0" x="48.2" y="70.9" width="2.8" height="2.8"/>
  <rect class="st0" x="65.2" y="70.9" width="2.8" height="2.8"/>
  <rect class="st0" x="68" y="70.9" width="2.8" height="2.8"/>
  <rect class="st0" x="73.7" y="70.9" width="2.8" height="2.8"/>
  <rect class="st0" y="73.7" width="2.8" height="2.8"/>
  <rect class="st0" x="5.7" y="73.7" width="2.8" height="2.8"/>
  <rect class="st0" x="8.5" y="73.7" width="2.8" height="2.8"/>
  <rect class="st0" x="11.3" y="73.7" width="2.8" height="2.8"/>
  <rect class="st0" x="17" y="73.7" width="2.8" height="2.8"/>
  <rect class="st0" x="22.7" y="73.7" width="2.8" height="2.8"/>
  <rect class="st0" x="25.5" y="73.7" width="2.8" height="2.8"/>
  <rect class="st0" x="28.3" y="73.7" width="2.8" height="2.8"/>
  <rect class="st0" x="34" y="73.7" width="2.8" height="2.8"/>
  <rect class="st0" x="51" y="73.7" width="2.8" height="2.8"/>
  <rect class="st0" x="65.2" y="73.7" width="2.8" height="2.8"/>
  <rect class="st0" x="68" y="73.7" width="2.8" height="2.8"/>
  <rect class="st0" x="70.9" y="73.7" width="2.8" height="2.8"/>
  <rect class="st0" x="79.4" y="73.7" width="2.8" height="2.8"/>
  <rect class="st0" y="76.5" width="2.8" height="2.8"/>
  <rect class="st0" x="17" y="76.5" width="2.8" height="2.8"/>
  <rect class="st0" x="28.3" y="76.5" width="2.8" height="2.8"/>
  <rect class="st0" x="39.7" y="76.5" width="2.8" height="2.8"/>
  <rect class="st0" x="42.5" y="76.5" width="2.8" height="2.8"/>
  <rect class="st0" x="45.4" y="76.5" width="2.8" height="2.8"/>
  <rect class="st0" x="48.2" y="76.5" width="2.8" height="2.8"/>
  <rect class="st0" x="51" y="76.5" width="2.8" height="2.8"/>
  <rect class="st0" x="53.9" y="76.5" width="2.8" height="2.8"/>
  <rect class="st0" x="56.7" y="76.5" width="2.8" height="2.8"/>
  <rect class="st0" x="62.4" y="76.5" width="2.8" height="2.8"/>
  <rect class="st0" x="65.2" y="76.5" width="2.8" height="2.8"/>
  <rect class="st0" x="68" y="76.5" width="2.8" height="2.8"/>
  <rect class="st0" x="76.5" y="76.5" width="2.8" height="2.8"/>
  <rect class="st0" y="79.4" width="2.8" height="2.8"/>
  <rect class="st0" x="2.8" y="79.4" width="2.8" height="2.8"/>
  <rect class="st0" x="5.7" y="79.4" width="2.8" height="2.8"/>
  <rect class="st0" x="8.5" y="79.4" width="2.8" height="2.8"/>
  <rect class="st0" x="11.3" y="79.4" width="2.8" height="2.8"/>
  <rect class="st0" x="14.2" y="79.4" width="2.8" height="2.8"/>
  <rect class="st0" x="17" y="79.4" width="2.8" height="2.8"/>
  <rect class="st0" x="22.7" y="79.4" width="2.8" height="2.8"/>
  <rect class="st0" x="25.5" y="79.4" width="2.8" height="2.8"/>
  <rect class="st0" x="28.3" y="79.4" width="2.8" height="2.8"/>
  <rect class="st0" x="39.7" y="79.4" width="2.8" height="2.8"/>
  <rect class="st0" x="42.5" y="79.4" width="2.8" height="2.8"/>
  <rect class="st0" x="45.4" y="79.4" width="2.8" height="2.8"/>
  <rect class="st0" x="48.2" y="79.4" width="2.8" height="2.8"/>
  <rect class="st0" x="53.9" y="79.4" width="2.8" height="2.8"/>
  <rect class="st0" x="56.7" y="79.4" width="2.8" height="2.8"/>
  <rect class="st0" x="59.5" y="79.4" width="2.8" height="2.8"/>
  <rect class="st0" x="62.4" y="79.4" width="2.8" height="2.8"/>
  <rect class="st0" x="68" y="79.4" width="2.8" height="2.8"/>
  <rect class="st0" x="76.5" y="79.4" width="2.8" height="2.8"/>
  <rect class="st0" x="79.4" y="79.4" width="2.8" height="2.8"/>
</svg>